<?xml version="1.0" ?><svg data-name="Layer 1" id="Layer_1" viewBox="0 0 100 100" xmlns="http://www.w3.org/2000/svg"><title/><path d="M92.92,21.5a31.56,31.56,0,0,1-15.53,3.86c-7.19,0-14.6-2-21.76-4-7.34-2-14.94-4.08-22.5-4.08A34.51,34.51,0,0,0,18.3,20.46v-4.3a5.63,5.63,0,1,0-2.81,0V95H18.3V70.16a31.61,31.61,0,0,1,14.82-3.5h0c7.19,0,14.6,2,21.76,4,7.34,2,14.94,4.08,22.5,4.08a34.31,34.31,0,0,0,16.88-4.2l.73-.4V20.36ZM14.11,10.67a2.81,2.81,0,1,1,2.81,2.86A2.84,2.84,0,0,1,14.11,10.67ZM92.19,68.44a31.63,31.63,0,0,1-14.8,3.47c-7.19,0-14.6-2-21.76-4-7.34-2-14.94-4.08-22.5-4.08h0A34.51,34.51,0,0,0,18.33,67V23.58a31.63,31.63,0,0,1,14.8-3.47c7.19,0,14.6,2,21.76,4,7.34,2,14.94,4.08,22.5,4.08A34.52,34.52,0,0,0,92.19,25Z"/></svg>