<?xml version="1.0" ?><svg viewBox="0 0 64 64" xmlns="http://www.w3.org/2000/svg"><g id="a"/><g id="b"/><g id="c"><path d="M43.93,5.96c-.11-.6-.79-.9-1.31-.58l-10.62,6.56-9.97-6.79c-.16-.11-.34-.16-.53-.15-.39,.02-.72,.29-.8,.67l-2.87,12.15-11.86,2.25c-.6,.11-.9,.79-.58,1.31l6.56,10.62-6.79,9.97c-.34,.5-.07,1.2,.52,1.34l12.15,2.87,2.25,11.86c.11,.6,.79,.9,1.31,.58l10.62-6.56,9.97,6.79c.51,.34,1.2,.07,1.34-.52l2.87-12.15,11.86-2.25c.6-.11,.9-.79,.58-1.31l-6.56-10.62,6.79-9.97c.34-.5,.07-1.2-.52-1.34l-12.15-2.87-2.25-11.86Z" fill="#fdda5c" id="d"/><path d="M46.18,17.82l-14.18-5.87-14.18,5.87-5.87,14.18,5.87,14.18,14.18,5.87,14.18-5.87,5.87-14.18-5.87-14.18Z" fill="#fce87b" id="e"/></g><g id="f"/><g id="g"/><g id="h"/><g id="i"/><g id="j"/><g id="k"/><g id="l"/><g id="m"/><g id="n"/><g id="o"/><g id="p"/><g id="q"/><g id="r"/><g id="s"/><g id="t"/><g id="u"/><g id="v"/><g id="w"/><g id="x"/><g id="y"/><g id="a`"/><g id="aa"/><g id="ab"/><g id="ac"/><g id="ad"/><g id="ae"/><g id="af"/><g id="ag"/><g id="ah"/><g id="ai"/><g id="aj"/><g id="ak"/><g id="al"/><g id="am"/><g id="an"/><g id="ao"/><g id="ap"/><g id="aq"/><g id="ar"/><g id="as"/><g id="at"/><g id="au"/><g id="av"/><g id="aw"/><g id="ax"/><g id="ay"/><g id="b`"/></svg>